<?xml version="1.0" encoding="utf-8"?>
<!-- Generator: Adobe Illustrator 22.0.1, SVG Export Plug-In . SVG Version: 6.00 Build 0)  -->
<svg version="1.1" id="Layer_1" xmlns="http://www.w3.org/2000/svg" xmlns:xlink="http://www.w3.org/1999/xlink" x="0px" y="0px"
	 viewBox="0 0 45 90" style="enable-background:new 0 0 45 90;" xml:space="preserve">
<style type="text/css">
	.st0{enable-background:new    ;}
</style>
<path d="M38,0H7C3.1,0,0,3.1,0,7v76c0,3.9,3.1,7,7,7h31c3.9,0,7-3.1,7-7V7C45,3.1,41.9,0,38,0z M42,83c0,2.2-1.8,4-4,4H7
	c-2.2,0-4-1.8-4-4V7c0-2.2,1.8-4,4-4h4.6v0.5c0,1.2,1,2.2,2.2,2.2h17.2c1.2,0,2.3-1,2.3-2.2c0,0,0,0,0,0V3H38c2.2,0,4,1.8,4,4V83z"
	/>
<text transform="matrix(1 0 0 1 -26 110)" style="font-family:'HelveticaNeue-Bold'; font-size:5px;">Created by DANIELKON</text>
<text transform="matrix(1 0 0 1 -26 115)" style="font-family:'HelveticaNeue-Bold'; font-size:5px;">from the Noun Project</text>
</svg>
